G04 Layer_Physical_Order=1*
G04 Layer_Color=25308*
%FSLAX43Y43*%
%MOMM*%
G71*
G01*
G75*
%ADD10R,2.100X0.900*%
%ADD11R,2.100X3.200*%
%ADD12C,0.254*%
%ADD13C,0.400*%
%ADD14C,1.270*%
%ADD15C,7.000*%
%ADD16C,1.750*%
G04:AMPARAMS|DCode=17|XSize=1.75mm|YSize=1.75mm|CornerRadius=0.175mm|HoleSize=0mm|Usage=FLASHONLY|Rotation=180.000|XOffset=0mm|YOffset=0mm|HoleType=Round|Shape=RoundedRectangle|*
%AMROUNDEDRECTD17*
21,1,1.750,1.400,0,0,180.0*
21,1,1.400,1.750,0,0,180.0*
1,1,0.350,-0.700,0.700*
1,1,0.350,0.700,0.700*
1,1,0.350,0.700,-0.700*
1,1,0.350,-0.700,-0.700*
%
%ADD17ROUNDEDRECTD17*%
%ADD18C,1.524*%
%ADD19C,1.905*%
%ADD20R,1.905X1.905*%
%ADD21C,1.422*%
%ADD22R,1.422X1.422*%
%ADD23R,1.270X1.270*%
G04:AMPARAMS|DCode=24|XSize=1.75mm|YSize=1.75mm|CornerRadius=0.175mm|HoleSize=0mm|Usage=FLASHONLY|Rotation=270.000|XOffset=0mm|YOffset=0mm|HoleType=Round|Shape=RoundedRectangle|*
%AMROUNDEDRECTD24*
21,1,1.750,1.400,0,0,270.0*
21,1,1.400,1.750,0,0,270.0*
1,1,0.350,-0.700,-0.700*
1,1,0.350,-0.700,0.700*
1,1,0.350,0.700,0.700*
1,1,0.350,0.700,-0.700*
%
%ADD24ROUNDEDRECTD24*%
%ADD25C,2.000*%
G04:AMPARAMS|DCode=26|XSize=1.75mm|YSize=1.75mm|CornerRadius=0.438mm|HoleSize=0mm|Usage=FLASHONLY|Rotation=270.000|XOffset=0mm|YOffset=0mm|HoleType=Round|Shape=RoundedRectangle|*
%AMROUNDEDRECTD26*
21,1,1.750,0.875,0,0,270.0*
21,1,0.875,1.750,0,0,270.0*
1,1,0.875,-0.438,-0.438*
1,1,0.875,-0.438,0.438*
1,1,0.875,0.438,0.438*
1,1,0.875,0.438,-0.438*
%
%ADD26ROUNDEDRECTD26*%
%ADD27C,1.778*%
G36*
X73575Y57654D02*
X73737Y57441D01*
X73950Y57279D01*
X74037Y57242D01*
X74037Y54305D01*
X73942Y54221D01*
X73914Y54225D01*
X73619Y54186D01*
X73345Y54072D01*
X73109Y53891D01*
X72928Y53655D01*
X72814Y53381D01*
X72775Y53086D01*
X72814Y52791D01*
X72928Y52517D01*
X72979Y52450D01*
X72883Y52366D01*
X69359Y55890D01*
X69349Y55912D01*
X69356Y56048D01*
X69444Y56116D01*
X69587Y56302D01*
X69676Y56518D01*
X69707Y56750D01*
X69676Y56982D01*
X69587Y57198D01*
X69444Y57384D01*
X69258Y57527D01*
X69139Y57576D01*
X69164Y57703D01*
X73554Y57703D01*
X73575Y57654D01*
X73575Y57654D02*
G37*
G36*
X62515Y69081D02*
X62358Y68960D01*
X62215Y68774D01*
X62191Y68714D01*
X58262Y68714D01*
X58221Y68813D01*
X58066Y69014D01*
X57980Y69081D01*
X58023Y69208D01*
X62482Y69208D01*
X62515Y69081D01*
X62515Y69081D02*
G37*
G36*
X43916Y69604D02*
X43953Y69318D01*
X44080Y69013D01*
X44281Y68751D01*
X44543Y68550D01*
X44798Y68444D01*
X44798Y68306D01*
X44543Y68200D01*
X44281Y67999D01*
X44080Y67737D01*
X43953Y67432D01*
X43916Y67146D01*
X43784Y67122D01*
X43682Y67315D01*
X43494Y67544D01*
X43265Y67732D01*
X43003Y67871D01*
X42720Y67957D01*
X42425Y67986D01*
X42130Y67957D01*
X41847Y67871D01*
X41585Y67732D01*
X41356Y67544D01*
X41273Y67443D01*
X41235Y67440D01*
X41131Y67470D01*
X41020Y67737D01*
X40819Y67999D01*
X40557Y68200D01*
X40302Y68306D01*
X40302Y68444D01*
X40557Y68550D01*
X40819Y68751D01*
X41020Y69013D01*
X41131Y69280D01*
X41235Y69310D01*
X41273Y69307D01*
X41356Y69206D01*
X41585Y69018D01*
X41847Y68879D01*
X42130Y68793D01*
X42425Y68764D01*
X42720Y68793D01*
X43003Y68879D01*
X43265Y69018D01*
X43494Y69206D01*
X43682Y69435D01*
X43784Y69628D01*
X43916Y69604D01*
X43916Y69604D02*
G37*
G36*
X73345Y52100D02*
X73619Y51986D01*
X73914Y51947D01*
X73942Y51951D01*
X74037Y51867D01*
X74037Y47703D01*
X73910Y47677D01*
X73877Y47758D01*
X73734Y47944D01*
X73548Y48087D01*
X73488Y48111D01*
X73488Y51600D01*
X73459Y51749D01*
X73375Y51875D01*
X73194Y52055D01*
X73278Y52151D01*
X73345Y52100D01*
X73345Y52100D02*
G37*
G36*
X56535Y60219D02*
X56690Y60018D01*
X56891Y59863D01*
X57126Y59766D01*
X57378Y59732D01*
X57630Y59766D01*
X57865Y59863D01*
X58066Y60018D01*
X58159Y60138D01*
X58286Y60094D01*
X58286Y58778D01*
X58159Y58734D01*
X58066Y58854D01*
X57865Y59009D01*
X57630Y59106D01*
X57378Y59140D01*
X57126Y59106D01*
X56891Y59009D01*
X56690Y58854D01*
X56535Y58653D01*
X56438Y58418D01*
X56405Y58166D01*
X56438Y57914D01*
X56478Y57816D01*
X55370Y56707D01*
X55252Y56756D01*
X55252Y59275D01*
X56295Y60318D01*
X56494Y60318D01*
X56535Y60219D01*
X56535Y60219D02*
G37*
G36*
X58286Y57554D02*
X58286Y56238D01*
X58159Y56194D01*
X58066Y56314D01*
X57865Y56469D01*
X57630Y56566D01*
X57378Y56600D01*
X57126Y56566D01*
X56891Y56469D01*
X56690Y56314D01*
X56535Y56113D01*
X56438Y55878D01*
X56405Y55626D01*
X56438Y55374D01*
X56478Y55276D01*
X55878Y54675D01*
X55760Y54724D01*
X55760Y55999D01*
X57028Y57266D01*
X57126Y57226D01*
X57378Y57192D01*
X57630Y57226D01*
X57865Y57323D01*
X58066Y57478D01*
X58159Y57598D01*
X58286Y57554D01*
X58286Y57554D02*
G37*
G36*
X48612Y73521D02*
X48612Y69204D01*
X48494Y69155D01*
X47750Y69900D01*
X47624Y69984D01*
X47475Y70013D01*
X46380Y70013D01*
X46270Y70277D01*
X46069Y70539D01*
X45807Y70740D01*
X45502Y70867D01*
X45175Y70910D01*
X44848Y70867D01*
X44543Y70740D01*
X44281Y70539D01*
X44080Y70277D01*
X44059Y70228D01*
X43935Y70259D01*
X43936Y70275D01*
X43907Y70570D01*
X43821Y70853D01*
X43682Y71115D01*
X43494Y71344D01*
X43265Y71532D01*
X43003Y71671D01*
X42720Y71757D01*
X42425Y71786D01*
X42130Y71757D01*
X41847Y71671D01*
X41585Y71532D01*
X41356Y71344D01*
X41168Y71115D01*
X41029Y70853D01*
X40947Y70582D01*
X40888Y70555D01*
X40813Y70545D01*
X40557Y70740D01*
X40288Y70852D01*
X40288Y73639D01*
X40911Y74262D01*
X47871Y74262D01*
X48612Y73521D01*
X48612Y73521D02*
G37*
G36*
X64248Y56235D02*
X64155Y56113D01*
X64058Y55878D01*
X64025Y55626D01*
X64058Y55374D01*
X64155Y55139D01*
X64310Y54938D01*
X64511Y54783D01*
X64650Y54725D01*
X64625Y54598D01*
X62029Y54598D01*
X61094Y55533D01*
X61094Y55859D01*
X61208Y55916D01*
X61274Y55865D01*
X61490Y55776D01*
X61722Y55745D01*
X61954Y55776D01*
X62170Y55865D01*
X62356Y56008D01*
X62499Y56194D01*
X62568Y56362D01*
X64186Y56362D01*
X64248Y56235D01*
X64248Y56235D02*
G37*
G36*
X49341Y75400D02*
X49341Y74070D01*
X49214Y74017D01*
X48307Y74925D01*
X48181Y75009D01*
X48032Y75038D01*
X40750Y75038D01*
X40601Y75009D01*
X40475Y74925D01*
X39625Y74075D01*
X39541Y73949D01*
X39512Y73800D01*
X39512Y70831D01*
X39293Y70740D01*
X39031Y70539D01*
X38830Y70277D01*
X38703Y69972D01*
X38660Y69645D01*
X38703Y69318D01*
X38830Y69013D01*
X39031Y68751D01*
X39293Y68550D01*
X39548Y68444D01*
X39548Y68306D01*
X39293Y68200D01*
X39031Y67999D01*
X38830Y67737D01*
X38703Y67432D01*
X38677Y67232D01*
X39925Y67232D01*
X39925Y67105D01*
X40052Y67105D01*
X40052Y65857D01*
X40252Y65883D01*
X40557Y66010D01*
X40813Y66205D01*
X40888Y66195D01*
X40947Y66168D01*
X41029Y65897D01*
X41168Y65635D01*
X41356Y65406D01*
X41585Y65218D01*
X41847Y65079D01*
X42130Y64993D01*
X42425Y64964D01*
X42720Y64993D01*
X43003Y65079D01*
X43265Y65218D01*
X43494Y65406D01*
X43682Y65635D01*
X43821Y65897D01*
X43907Y66180D01*
X43936Y66475D01*
X43935Y66490D01*
X44059Y66522D01*
X44080Y66473D01*
X44281Y66211D01*
X44543Y66010D01*
X44762Y65919D01*
X44762Y65711D01*
X41625Y62575D01*
X41541Y62449D01*
X41512Y62300D01*
X41512Y53161D01*
X37925Y49575D01*
X37841Y49449D01*
X37812Y49300D01*
X37812Y42612D01*
X37841Y42463D01*
X37925Y42337D01*
X42168Y38095D01*
X42086Y37898D01*
X42047Y37600D01*
X42086Y37302D01*
X42202Y37024D01*
X42385Y36785D01*
X42624Y36602D01*
X42902Y36486D01*
X43200Y36447D01*
X43498Y36486D01*
X43776Y36602D01*
X44015Y36785D01*
X44198Y37024D01*
X44314Y37302D01*
X44353Y37600D01*
X44314Y37898D01*
X44198Y38176D01*
X44015Y38415D01*
X43776Y38598D01*
X43498Y38714D01*
X43200Y38753D01*
X42902Y38714D01*
X42722Y38639D01*
X40043Y41319D01*
X40043Y41445D01*
X40177Y41580D01*
X40402Y41486D01*
X40700Y41447D01*
X40998Y41486D01*
X41276Y41602D01*
X41515Y41785D01*
X41698Y42024D01*
X41814Y42302D01*
X41853Y42600D01*
X41814Y42898D01*
X41698Y43176D01*
X41515Y43415D01*
X41276Y43598D01*
X40998Y43714D01*
X40700Y43753D01*
X40402Y43714D01*
X40124Y43598D01*
X39885Y43415D01*
X39702Y43176D01*
X39586Y42898D01*
X39547Y42600D01*
X39586Y42302D01*
X39649Y42150D01*
X39430Y41931D01*
X38588Y42773D01*
X38588Y49139D01*
X42175Y52725D01*
X42259Y52851D01*
X42288Y53000D01*
X42288Y62139D01*
X45425Y65275D01*
X45509Y65401D01*
X45514Y65426D01*
X45538Y65550D01*
X45538Y65898D01*
X45807Y66010D01*
X46069Y66211D01*
X46270Y66473D01*
X46397Y66778D01*
X46440Y67105D01*
X46397Y67432D01*
X46270Y67737D01*
X46069Y67999D01*
X45807Y68200D01*
X45552Y68306D01*
X45552Y68444D01*
X45807Y68550D01*
X46069Y68751D01*
X46270Y69013D01*
X46363Y69237D01*
X47314Y69237D01*
X48104Y68447D01*
X48104Y62410D01*
X47296Y61602D01*
X44500Y61602D01*
X44477Y61658D01*
X44334Y61844D01*
X44148Y61987D01*
X43932Y62076D01*
X43700Y62107D01*
X43468Y62076D01*
X43252Y61987D01*
X43066Y61844D01*
X42923Y61658D01*
X42834Y61442D01*
X42803Y61210D01*
X42834Y60978D01*
X42923Y60762D01*
X43066Y60576D01*
X43252Y60433D01*
X43468Y60344D01*
X43700Y60313D01*
X43932Y60344D01*
X44148Y60433D01*
X44334Y60576D01*
X44477Y60762D01*
X44503Y60826D01*
X47457Y60826D01*
X47605Y60855D01*
X47731Y60939D01*
X48494Y61702D01*
X48612Y61654D01*
X48612Y55252D01*
X48305Y55252D01*
X48230Y55433D01*
X48049Y55669D01*
X47813Y55850D01*
X47539Y55964D01*
X47244Y56003D01*
X46949Y55964D01*
X46675Y55850D01*
X46439Y55669D01*
X46258Y55433D01*
X46144Y55159D01*
X46105Y54864D01*
X46144Y54569D01*
X46258Y54295D01*
X46439Y54059D01*
X46675Y53878D01*
X46949Y53764D01*
X47244Y53725D01*
X47539Y53764D01*
X47813Y53878D01*
X48049Y54059D01*
X48230Y54295D01*
X48305Y54476D01*
X48612Y54476D01*
X48612Y50177D01*
X47536Y49101D01*
X47476Y49126D01*
X47244Y49157D01*
X47012Y49126D01*
X46796Y49037D01*
X46610Y48894D01*
X46467Y48708D01*
X46378Y48492D01*
X46347Y48260D01*
X46378Y48028D01*
X46467Y47812D01*
X46610Y47626D01*
X46796Y47483D01*
X47012Y47394D01*
X47244Y47363D01*
X47476Y47394D01*
X47692Y47483D01*
X47878Y47626D01*
X48021Y47812D01*
X48110Y48028D01*
X48141Y48260D01*
X48110Y48492D01*
X48085Y48552D01*
X49214Y49681D01*
X49341Y49628D01*
X49341Y25490D01*
X49251Y25400D01*
X33020Y25400D01*
X33020Y75310D01*
X33110Y75400D01*
X49341Y75400D01*
X49341Y75400D02*
G37*
G36*
X81534Y75400D02*
X81534Y25490D01*
X81444Y25400D01*
X51759Y25400D01*
X51759Y35118D01*
X51886Y35171D01*
X57613Y29443D01*
X57739Y29359D01*
X57888Y29330D01*
X70991Y29330D01*
X71082Y29110D01*
X71276Y28858D01*
X71528Y28664D01*
X71821Y28543D01*
X72053Y28512D01*
X72053Y28384D01*
X71821Y28353D01*
X71528Y28232D01*
X71276Y28038D01*
X71082Y27786D01*
X70961Y27493D01*
X70919Y27178D01*
X70961Y26863D01*
X71082Y26570D01*
X71276Y26318D01*
X71528Y26124D01*
X71821Y26003D01*
X72136Y25961D01*
X72451Y26003D01*
X72744Y26124D01*
X72996Y26318D01*
X73190Y26570D01*
X73311Y26863D01*
X73353Y27178D01*
X73311Y27493D01*
X73251Y27639D01*
X74827Y29215D01*
X74827Y29215D01*
X74928Y29365D01*
X74963Y29542D01*
X74963Y52668D01*
X75014Y52791D01*
X75053Y53086D01*
X75014Y53381D01*
X74963Y53504D01*
X74963Y57274D01*
X74974Y57279D01*
X75187Y57441D01*
X75349Y57654D01*
X75452Y57901D01*
X75487Y58166D01*
X75452Y58431D01*
X75349Y58678D01*
X75187Y58891D01*
X74974Y59053D01*
X74727Y59156D01*
X74575Y59176D01*
X74575Y69520D01*
X75416Y69520D01*
X75416Y73228D01*
X72808Y73228D01*
X72808Y69520D01*
X73649Y69520D01*
X73649Y58776D01*
X73575Y58678D01*
X73554Y58629D01*
X65851Y58629D01*
X65841Y58653D01*
X65686Y58854D01*
X65485Y59009D01*
X65250Y59106D01*
X64998Y59140D01*
X64746Y59106D01*
X64511Y59009D01*
X64310Y58854D01*
X64155Y58653D01*
X64058Y58418D01*
X64025Y58166D01*
X64058Y57914D01*
X64155Y57679D01*
X64310Y57478D01*
X64511Y57323D01*
X64650Y57265D01*
X64625Y57138D01*
X62462Y57138D01*
X62356Y57276D01*
X62170Y57419D01*
X61954Y57508D01*
X61722Y57539D01*
X61490Y57508D01*
X61274Y57419D01*
X61208Y57368D01*
X61094Y57425D01*
X61094Y59275D01*
X62137Y60318D01*
X64114Y60318D01*
X64155Y60219D01*
X64310Y60018D01*
X64511Y59863D01*
X64746Y59766D01*
X64998Y59732D01*
X65250Y59766D01*
X65485Y59863D01*
X65686Y60018D01*
X65841Y60219D01*
X65938Y60454D01*
X65972Y60706D01*
X65938Y60958D01*
X65841Y61193D01*
X65686Y61394D01*
X65485Y61549D01*
X65250Y61646D01*
X64998Y61680D01*
X64746Y61646D01*
X64511Y61549D01*
X64310Y61394D01*
X64155Y61193D01*
X64114Y61094D01*
X61976Y61094D01*
X61827Y61065D01*
X61701Y60981D01*
X60431Y59711D01*
X60347Y59585D01*
X60318Y59436D01*
X60318Y55372D01*
X60347Y55223D01*
X60431Y55097D01*
X61593Y53935D01*
X61719Y53851D01*
X61868Y53822D01*
X64186Y53822D01*
X64248Y53695D01*
X64155Y53573D01*
X64058Y53338D01*
X64025Y53086D01*
X64058Y52834D01*
X64155Y52599D01*
X64310Y52398D01*
X64511Y52243D01*
X64746Y52146D01*
X64998Y52112D01*
X65250Y52146D01*
X65485Y52243D01*
X65686Y52398D01*
X65841Y52599D01*
X65938Y52834D01*
X65972Y53086D01*
X65938Y53338D01*
X65841Y53573D01*
X65748Y53695D01*
X65810Y53822D01*
X68009Y53822D01*
X68033Y53762D01*
X68176Y53576D01*
X68362Y53433D01*
X68578Y53344D01*
X68810Y53313D01*
X69042Y53344D01*
X69258Y53433D01*
X69444Y53576D01*
X69587Y53762D01*
X69676Y53978D01*
X69707Y54210D01*
X69698Y54273D01*
X69819Y54332D01*
X72712Y51439D01*
X72712Y48111D01*
X72652Y48087D01*
X72466Y47944D01*
X72323Y47758D01*
X72234Y47542D01*
X72203Y47310D01*
X72234Y47078D01*
X72323Y46862D01*
X72466Y46676D01*
X72652Y46533D01*
X72868Y46444D01*
X73100Y46413D01*
X73332Y46444D01*
X73548Y46533D01*
X73734Y46676D01*
X73877Y46862D01*
X73910Y46943D01*
X74037Y46917D01*
X74037Y40153D01*
X73865Y40153D01*
X73734Y40324D01*
X73548Y40467D01*
X73332Y40556D01*
X73100Y40587D01*
X72868Y40556D01*
X72652Y40467D01*
X72466Y40324D01*
X72323Y40138D01*
X72234Y39922D01*
X72203Y39690D01*
X72234Y39458D01*
X72323Y39242D01*
X72466Y39056D01*
X72652Y38913D01*
X72868Y38824D01*
X73100Y38793D01*
X73332Y38824D01*
X73548Y38913D01*
X73734Y39056D01*
X73865Y39227D01*
X74037Y39227D01*
X74037Y29734D01*
X73142Y28839D01*
X73047Y28923D01*
X73190Y29110D01*
X73311Y29403D01*
X73353Y29718D01*
X73311Y30033D01*
X73190Y30326D01*
X72996Y30578D01*
X72744Y30772D01*
X72451Y30893D01*
X72219Y30924D01*
X72219Y31052D01*
X72451Y31083D01*
X72744Y31204D01*
X72996Y31398D01*
X73190Y31650D01*
X73311Y31943D01*
X73353Y32258D01*
X73311Y32573D01*
X73220Y32793D01*
X73744Y33317D01*
X73828Y33443D01*
X73858Y33591D01*
X73858Y36331D01*
X73828Y36479D01*
X73744Y36605D01*
X67149Y43201D01*
X67023Y43285D01*
X66874Y43314D01*
X65882Y43314D01*
X65841Y43413D01*
X65686Y43614D01*
X65485Y43769D01*
X65250Y43866D01*
X64998Y43900D01*
X64746Y43866D01*
X64511Y43769D01*
X64310Y43614D01*
X64155Y43413D01*
X64058Y43178D01*
X64025Y42926D01*
X64058Y42674D01*
X64155Y42439D01*
X64310Y42238D01*
X64511Y42083D01*
X64746Y41986D01*
X64998Y41952D01*
X65250Y41986D01*
X65485Y42083D01*
X65686Y42238D01*
X65841Y42439D01*
X65882Y42538D01*
X66713Y42538D01*
X73081Y36170D01*
X73081Y35747D01*
X72954Y35691D01*
X72744Y35852D01*
X72451Y35973D01*
X72136Y36015D01*
X71821Y35973D01*
X71528Y35852D01*
X71276Y35658D01*
X71082Y35406D01*
X70991Y35186D01*
X65667Y35186D01*
X58278Y42576D01*
X58318Y42674D01*
X58352Y42926D01*
X58318Y43178D01*
X58221Y43413D01*
X58066Y43614D01*
X57865Y43769D01*
X57630Y43866D01*
X57378Y43900D01*
X57126Y43866D01*
X56891Y43769D01*
X56690Y43614D01*
X56535Y43413D01*
X56438Y43178D01*
X56405Y42926D01*
X56438Y42674D01*
X56535Y42439D01*
X56690Y42238D01*
X56891Y42083D01*
X57126Y41986D01*
X57378Y41952D01*
X57630Y41986D01*
X57728Y42026D01*
X65231Y34523D01*
X65357Y34439D01*
X65382Y34434D01*
X65506Y34410D01*
X70991Y34410D01*
X71082Y34190D01*
X71276Y33938D01*
X71528Y33744D01*
X71821Y33623D01*
X72053Y33592D01*
X72053Y33464D01*
X71821Y33433D01*
X71528Y33312D01*
X71276Y33118D01*
X71082Y32866D01*
X70961Y32573D01*
X70919Y32258D01*
X70961Y31943D01*
X71082Y31650D01*
X71276Y31398D01*
X71528Y31204D01*
X71821Y31083D01*
X72053Y31052D01*
X72053Y30924D01*
X71821Y30893D01*
X71528Y30772D01*
X71276Y30578D01*
X71082Y30326D01*
X70991Y30106D01*
X58049Y30106D01*
X52434Y35721D01*
X52434Y47010D01*
X52552Y47059D01*
X52729Y46882D01*
X52704Y46822D01*
X52673Y46590D01*
X52704Y46358D01*
X52793Y46142D01*
X52936Y45956D01*
X53122Y45813D01*
X53338Y45724D01*
X53570Y45693D01*
X53802Y45724D01*
X54018Y45813D01*
X54204Y45956D01*
X54347Y46142D01*
X54436Y46358D01*
X54467Y46590D01*
X54436Y46822D01*
X54347Y47038D01*
X54204Y47224D01*
X54018Y47367D01*
X53802Y47456D01*
X53570Y47487D01*
X53338Y47456D01*
X53278Y47431D01*
X52942Y47767D01*
X52942Y48347D01*
X53056Y48404D01*
X53122Y48353D01*
X53338Y48264D01*
X53570Y48233D01*
X53802Y48264D01*
X54018Y48353D01*
X54204Y48496D01*
X54347Y48682D01*
X54436Y48898D01*
X54467Y49130D01*
X54436Y49362D01*
X54411Y49422D01*
X54866Y49877D01*
X54984Y49828D01*
X54984Y46013D01*
X53910Y44939D01*
X52681Y44939D01*
X52681Y43161D01*
X54459Y43161D01*
X54459Y44390D01*
X55647Y45577D01*
X55731Y45703D01*
X55760Y45852D01*
X55760Y49924D01*
X56289Y50452D01*
X56423Y50406D01*
X56438Y50294D01*
X56535Y50059D01*
X56690Y49858D01*
X56891Y49703D01*
X57126Y49606D01*
X57251Y49589D01*
X57251Y50546D01*
X57378Y50546D01*
X57378Y50673D01*
X58335Y50673D01*
X58318Y50798D01*
X58221Y51033D01*
X58066Y51234D01*
X57980Y51301D01*
X58023Y51428D01*
X58166Y51428D01*
X58315Y51457D01*
X58441Y51541D01*
X58949Y52049D01*
X59033Y52175D01*
X59062Y52324D01*
X59062Y64490D01*
X59033Y64639D01*
X58949Y64765D01*
X58278Y65436D01*
X58318Y65534D01*
X58352Y65786D01*
X58318Y66038D01*
X58221Y66273D01*
X58066Y66474D01*
X57865Y66629D01*
X57630Y66726D01*
X57378Y66760D01*
X57126Y66726D01*
X56891Y66629D01*
X56690Y66474D01*
X56535Y66273D01*
X56438Y66038D01*
X56405Y65786D01*
X56438Y65534D01*
X56535Y65299D01*
X56690Y65098D01*
X56891Y64943D01*
X57126Y64846D01*
X57378Y64812D01*
X57630Y64846D01*
X57728Y64886D01*
X58286Y64329D01*
X58286Y63858D01*
X58159Y63814D01*
X58066Y63934D01*
X57865Y64089D01*
X57630Y64186D01*
X57505Y64203D01*
X57505Y63246D01*
X57505Y62289D01*
X57630Y62306D01*
X57865Y62403D01*
X58066Y62558D01*
X58159Y62678D01*
X58286Y62634D01*
X58286Y61318D01*
X58159Y61274D01*
X58066Y61394D01*
X57865Y61549D01*
X57630Y61646D01*
X57378Y61680D01*
X57126Y61646D01*
X56891Y61549D01*
X56690Y61394D01*
X56535Y61193D01*
X56494Y61094D01*
X56134Y61094D01*
X55985Y61065D01*
X55859Y60981D01*
X54589Y59711D01*
X54505Y59585D01*
X54476Y59436D01*
X54476Y57219D01*
X54349Y57194D01*
X54347Y57198D01*
X54204Y57384D01*
X54018Y57527D01*
X53958Y57551D01*
X53958Y66871D01*
X56295Y69208D01*
X56733Y69208D01*
X56776Y69081D01*
X56690Y69014D01*
X56535Y68813D01*
X56438Y68578D01*
X56405Y68326D01*
X56438Y68074D01*
X56535Y67839D01*
X56690Y67638D01*
X56891Y67483D01*
X57126Y67386D01*
X57378Y67352D01*
X57630Y67386D01*
X57865Y67483D01*
X58066Y67638D01*
X58221Y67839D01*
X58262Y67938D01*
X62191Y67938D01*
X62215Y67878D01*
X62358Y67692D01*
X62544Y67549D01*
X62760Y67460D01*
X62992Y67429D01*
X63224Y67460D01*
X63440Y67549D01*
X63626Y67692D01*
X63769Y67878D01*
X63858Y68094D01*
X63889Y68326D01*
X63858Y68558D01*
X63769Y68774D01*
X63626Y68960D01*
X63563Y69008D01*
X63591Y69147D01*
X63619Y69155D01*
X64098Y68676D01*
X64058Y68578D01*
X64025Y68326D01*
X64058Y68074D01*
X64155Y67839D01*
X64310Y67638D01*
X64511Y67483D01*
X64746Y67386D01*
X64998Y67352D01*
X65250Y67386D01*
X65485Y67483D01*
X65686Y67638D01*
X65841Y67839D01*
X65938Y68074D01*
X65972Y68326D01*
X65938Y68578D01*
X65841Y68813D01*
X65686Y69014D01*
X65485Y69169D01*
X65250Y69266D01*
X64998Y69300D01*
X64746Y69266D01*
X64648Y69226D01*
X64003Y69871D01*
X63877Y69955D01*
X63728Y69984D01*
X58343Y69984D01*
X58343Y71831D01*
X56413Y71831D01*
X56413Y71142D01*
X56411Y71141D01*
X51886Y66616D01*
X51759Y66668D01*
X51759Y75310D01*
X51849Y75400D01*
X81534Y75400D01*
X81534Y75400D02*
G37*
G36*
X68805Y55230D02*
X68737Y55097D01*
X68578Y55076D01*
X68362Y54987D01*
X68176Y54844D01*
X68033Y54658D01*
X68009Y54598D01*
X65371Y54598D01*
X65346Y54725D01*
X65485Y54783D01*
X65686Y54938D01*
X65841Y55139D01*
X65882Y55238D01*
X68800Y55238D01*
X68805Y55230D01*
X68805Y55230D02*
G37*
G36*
X58286Y55014D02*
X58286Y53698D01*
X58159Y53654D01*
X58066Y53774D01*
X57865Y53929D01*
X57630Y54026D01*
X57378Y54060D01*
X57126Y54026D01*
X56891Y53929D01*
X56690Y53774D01*
X56535Y53573D01*
X56438Y53338D01*
X56405Y53086D01*
X56438Y52834D01*
X56522Y52631D01*
X56386Y52495D01*
X56268Y52544D01*
X56268Y53967D01*
X57028Y54726D01*
X57126Y54686D01*
X57378Y54652D01*
X57630Y54686D01*
X57865Y54783D01*
X58066Y54938D01*
X58159Y55058D01*
X58286Y55014D01*
X58286Y55014D02*
G37*
G36*
X53182Y66647D02*
X53182Y57551D01*
X53122Y57527D01*
X52936Y57384D01*
X52793Y57198D01*
X52704Y56982D01*
X52673Y56750D01*
X52704Y56518D01*
X52793Y56302D01*
X52936Y56116D01*
X53122Y55973D01*
X53338Y55884D01*
X53570Y55853D01*
X53802Y55884D01*
X54018Y55973D01*
X54204Y56116D01*
X54347Y56302D01*
X54349Y56306D01*
X54476Y56281D01*
X54476Y55665D01*
X53862Y55051D01*
X53802Y55076D01*
X53570Y55107D01*
X53338Y55076D01*
X53122Y54987D01*
X52936Y54844D01*
X52793Y54658D01*
X52704Y54442D01*
X52673Y54210D01*
X52704Y53978D01*
X52793Y53762D01*
X52936Y53576D01*
X53122Y53433D01*
X53338Y53344D01*
X53570Y53313D01*
X53802Y53344D01*
X54018Y53433D01*
X54204Y53576D01*
X54347Y53762D01*
X54436Y53978D01*
X54467Y54210D01*
X54436Y54442D01*
X54411Y54502D01*
X54866Y54957D01*
X54984Y54908D01*
X54984Y53633D01*
X53862Y52511D01*
X53802Y52536D01*
X53570Y52567D01*
X53338Y52536D01*
X53122Y52447D01*
X52936Y52304D01*
X52793Y52118D01*
X52704Y51902D01*
X52673Y51670D01*
X52704Y51438D01*
X52793Y51222D01*
X52936Y51036D01*
X53122Y50893D01*
X53338Y50804D01*
X53317Y50680D01*
X53295Y50680D01*
X53147Y50651D01*
X53021Y50567D01*
X52552Y50098D01*
X52434Y50147D01*
X52434Y66066D01*
X53064Y66695D01*
X53182Y66647D01*
X53182Y66647D02*
G37*
%LPC*%
G36*
X68810Y52567D02*
X68578Y52536D01*
X68362Y52447D01*
X68176Y52304D01*
X68033Y52118D01*
X67944Y51902D01*
X67913Y51670D01*
X67944Y51438D01*
X67969Y51378D01*
X67525Y50934D01*
X65882Y50934D01*
X65841Y51033D01*
X65686Y51234D01*
X65485Y51389D01*
X65250Y51486D01*
X64998Y51520D01*
X64746Y51486D01*
X64511Y51389D01*
X64310Y51234D01*
X64155Y51033D01*
X64058Y50798D01*
X64025Y50546D01*
X64058Y50294D01*
X64155Y50059D01*
X64310Y49858D01*
X64511Y49703D01*
X64650Y49645D01*
X64625Y49518D01*
X58502Y49518D01*
X58378Y49494D01*
X58353Y49489D01*
X58227Y49405D01*
X57728Y48906D01*
X57630Y48946D01*
X57378Y48980D01*
X57126Y48946D01*
X56891Y48849D01*
X56690Y48694D01*
X56535Y48493D01*
X56438Y48258D01*
X56405Y48006D01*
X56438Y47754D01*
X56535Y47519D01*
X56690Y47318D01*
X56891Y47163D01*
X57126Y47066D01*
X57378Y47032D01*
X57630Y47066D01*
X57865Y47163D01*
X58066Y47318D01*
X58221Y47519D01*
X58318Y47754D01*
X58352Y48006D01*
X58318Y48258D01*
X58278Y48356D01*
X58663Y48742D01*
X64186Y48742D01*
X64248Y48615D01*
X64155Y48493D01*
X64058Y48258D01*
X64025Y48006D01*
X64058Y47754D01*
X64155Y47519D01*
X64310Y47318D01*
X64511Y47163D01*
X64650Y47105D01*
X64625Y46978D01*
X63901Y46978D01*
X63877Y47038D01*
X63734Y47224D01*
X63548Y47367D01*
X63332Y47456D01*
X63100Y47487D01*
X62868Y47456D01*
X62652Y47367D01*
X62466Y47224D01*
X62323Y47038D01*
X62234Y46822D01*
X62203Y46590D01*
X62234Y46358D01*
X62239Y46346D01*
X62221Y46319D01*
X62139Y46256D01*
X61954Y46332D01*
X61722Y46363D01*
X61490Y46332D01*
X61274Y46243D01*
X61088Y46100D01*
X60945Y45914D01*
X60921Y45854D01*
X58262Y45854D01*
X58221Y45953D01*
X58066Y46154D01*
X57865Y46309D01*
X57630Y46406D01*
X57378Y46440D01*
X57126Y46406D01*
X56891Y46309D01*
X56690Y46154D01*
X56535Y45953D01*
X56438Y45718D01*
X56405Y45466D01*
X56438Y45214D01*
X56535Y44979D01*
X56690Y44778D01*
X56891Y44623D01*
X57126Y44526D01*
X57378Y44492D01*
X57630Y44526D01*
X57865Y44623D01*
X58066Y44778D01*
X58221Y44979D01*
X58262Y45078D01*
X60921Y45078D01*
X60945Y45018D01*
X61088Y44832D01*
X61274Y44689D01*
X61490Y44600D01*
X61722Y44569D01*
X61954Y44600D01*
X62170Y44689D01*
X62356Y44832D01*
X62499Y45018D01*
X62588Y45234D01*
X62619Y45466D01*
X62588Y45698D01*
X62583Y45710D01*
X62601Y45737D01*
X62683Y45800D01*
X62868Y45724D01*
X63100Y45693D01*
X63332Y45724D01*
X63548Y45813D01*
X63734Y45956D01*
X63877Y46142D01*
X63901Y46202D01*
X64186Y46202D01*
X64248Y46075D01*
X64155Y45953D01*
X64058Y45718D01*
X64025Y45466D01*
X64058Y45214D01*
X64155Y44979D01*
X64310Y44778D01*
X64511Y44623D01*
X64746Y44526D01*
X64998Y44492D01*
X65250Y44526D01*
X65348Y44566D01*
X66139Y43775D01*
X66265Y43691D01*
X66414Y43662D01*
X68009Y43662D01*
X68033Y43602D01*
X68176Y43416D01*
X68362Y43273D01*
X68578Y43184D01*
X68810Y43153D01*
X69042Y43184D01*
X69258Y43273D01*
X69444Y43416D01*
X69587Y43602D01*
X69676Y43818D01*
X69707Y44050D01*
X69676Y44282D01*
X69587Y44498D01*
X69444Y44684D01*
X69258Y44827D01*
X69042Y44916D01*
X68810Y44947D01*
X68578Y44916D01*
X68362Y44827D01*
X68176Y44684D01*
X68033Y44498D01*
X68009Y44438D01*
X66575Y44438D01*
X65898Y45116D01*
X65938Y45214D01*
X65972Y45466D01*
X65938Y45718D01*
X65841Y45953D01*
X65748Y46075D01*
X65810Y46202D01*
X68009Y46202D01*
X68033Y46142D01*
X68176Y45956D01*
X68362Y45813D01*
X68578Y45724D01*
X68810Y45693D01*
X69042Y45724D01*
X69258Y45813D01*
X69444Y45956D01*
X69587Y46142D01*
X69676Y46358D01*
X69707Y46590D01*
X69676Y46822D01*
X69587Y47038D01*
X69444Y47224D01*
X69258Y47367D01*
X69042Y47456D01*
X68810Y47487D01*
X68578Y47456D01*
X68362Y47367D01*
X68176Y47224D01*
X68033Y47038D01*
X68009Y46978D01*
X65371Y46978D01*
X65346Y47105D01*
X65485Y47163D01*
X65686Y47318D01*
X65841Y47519D01*
X65938Y47754D01*
X65972Y48006D01*
X65938Y48258D01*
X65841Y48493D01*
X65748Y48615D01*
X65810Y48742D01*
X68009Y48742D01*
X68033Y48682D01*
X68176Y48496D01*
X68362Y48353D01*
X68578Y48264D01*
X68810Y48233D01*
X69042Y48264D01*
X69258Y48353D01*
X69444Y48496D01*
X69587Y48682D01*
X69676Y48898D01*
X69707Y49130D01*
X69676Y49362D01*
X69587Y49578D01*
X69444Y49764D01*
X69258Y49907D01*
X69042Y49996D01*
X68810Y50027D01*
X68578Y49996D01*
X68362Y49907D01*
X68176Y49764D01*
X68033Y49578D01*
X68009Y49518D01*
X65371Y49518D01*
X65346Y49645D01*
X65485Y49703D01*
X65686Y49858D01*
X65841Y50059D01*
X65882Y50158D01*
X67686Y50158D01*
X67835Y50187D01*
X67961Y50271D01*
X68518Y50829D01*
X68578Y50804D01*
X68810Y50773D01*
X69042Y50804D01*
X69258Y50893D01*
X69444Y51036D01*
X69587Y51222D01*
X69676Y51438D01*
X69707Y51670D01*
X69676Y51902D01*
X69587Y52118D01*
X69444Y52304D01*
X69258Y52447D01*
X69042Y52536D01*
X68810Y52567D01*
X68810Y52567D02*
G37*
G36*
X58335Y50419D02*
X57505Y50419D01*
X57505Y49589D01*
X57630Y49606D01*
X57865Y49703D01*
X58066Y49858D01*
X58221Y50059D01*
X58318Y50294D01*
X58335Y50419D01*
X58335Y50419D02*
G37*
G36*
X80131Y52959D02*
X79121Y52959D01*
X79121Y51949D01*
X79694Y51949D01*
X79861Y51982D01*
X80003Y52077D01*
X80098Y52219D01*
X80131Y52386D01*
X80131Y52959D01*
X80131Y52959D02*
G37*
G36*
X79694Y54223D02*
X79121Y54223D01*
X79121Y53213D01*
X80131Y53213D01*
X80131Y53786D01*
X80098Y53953D01*
X80003Y54095D01*
X79861Y54190D01*
X79694Y54223D01*
X79694Y54223D02*
G37*
G36*
X43700Y54487D02*
X43468Y54456D01*
X43252Y54367D01*
X43066Y54224D01*
X42923Y54038D01*
X42834Y53822D01*
X42803Y53590D01*
X42834Y53358D01*
X42923Y53142D01*
X43066Y52956D01*
X43252Y52813D01*
X43312Y52789D01*
X43312Y52497D01*
X39916Y49101D01*
X39856Y49126D01*
X39624Y49157D01*
X39392Y49126D01*
X39176Y49037D01*
X38990Y48894D01*
X38847Y48708D01*
X38758Y48492D01*
X38727Y48260D01*
X38758Y48028D01*
X38847Y47812D01*
X38990Y47626D01*
X39176Y47483D01*
X39392Y47394D01*
X39624Y47363D01*
X39856Y47394D01*
X40072Y47483D01*
X40258Y47626D01*
X40401Y47812D01*
X40490Y48028D01*
X40521Y48260D01*
X40490Y48492D01*
X40465Y48552D01*
X43849Y51936D01*
X46183Y51936D01*
X46258Y51755D01*
X46439Y51519D01*
X46675Y51338D01*
X46949Y51224D01*
X47244Y51185D01*
X47539Y51224D01*
X47813Y51338D01*
X48049Y51519D01*
X48230Y51755D01*
X48344Y52029D01*
X48383Y52324D01*
X48344Y52619D01*
X48230Y52893D01*
X48049Y53129D01*
X47813Y53310D01*
X47539Y53424D01*
X47244Y53463D01*
X46949Y53424D01*
X46675Y53310D01*
X46439Y53129D01*
X46258Y52893D01*
X46183Y52712D01*
X44225Y52712D01*
X44182Y52839D01*
X44334Y52956D01*
X44477Y53142D01*
X44566Y53358D01*
X44597Y53590D01*
X44566Y53822D01*
X44477Y54038D01*
X44334Y54224D01*
X44148Y54367D01*
X43932Y54456D01*
X43700Y54487D01*
X43700Y54487D02*
G37*
G36*
X37409Y59138D02*
X36820Y59091D01*
X36245Y58953D01*
X35699Y58727D01*
X35196Y58418D01*
X34746Y58035D01*
X34363Y57585D01*
X34054Y57082D01*
X33828Y56536D01*
X33690Y55961D01*
X33643Y55372D01*
X33690Y54783D01*
X33828Y54208D01*
X34054Y53662D01*
X34363Y53159D01*
X34746Y52709D01*
X35196Y52326D01*
X35699Y52017D01*
X36245Y51791D01*
X36820Y51653D01*
X37409Y51606D01*
X37998Y51653D01*
X38573Y51791D01*
X39119Y52017D01*
X39622Y52326D01*
X40072Y52709D01*
X40455Y53159D01*
X40764Y53662D01*
X40990Y54208D01*
X41128Y54783D01*
X41175Y55372D01*
X41128Y55961D01*
X40990Y56536D01*
X40764Y57082D01*
X40455Y57585D01*
X40072Y58035D01*
X39622Y58418D01*
X39119Y58727D01*
X38573Y58953D01*
X37998Y59091D01*
X37409Y59138D01*
X37409Y59138D02*
G37*
G36*
X79629Y35998D02*
X79441Y35973D01*
X79148Y35852D01*
X78896Y35658D01*
X78702Y35406D01*
X78581Y35113D01*
X78556Y34925D01*
X79629Y34925D01*
X79629Y35998D01*
X79629Y35998D02*
G37*
G36*
X79883Y35998D02*
X79883Y34925D01*
X80956Y34925D01*
X80931Y35113D01*
X80810Y35406D01*
X80616Y35658D01*
X80364Y35852D01*
X80071Y35973D01*
X79883Y35998D01*
X79883Y35998D02*
G37*
G36*
X45573Y42473D02*
X44564Y42473D01*
X44586Y42302D01*
X44702Y42024D01*
X44885Y41785D01*
X45124Y41602D01*
X45402Y41486D01*
X45573Y41464D01*
X45573Y42473D01*
X45573Y42473D02*
G37*
G36*
X37409Y33738D02*
X36820Y33691D01*
X36245Y33553D01*
X35699Y33327D01*
X35196Y33018D01*
X34746Y32635D01*
X34363Y32185D01*
X34054Y31682D01*
X33828Y31136D01*
X33690Y30561D01*
X33643Y29972D01*
X33690Y29383D01*
X33828Y28808D01*
X34054Y28262D01*
X34363Y27759D01*
X34746Y27309D01*
X35196Y26926D01*
X35699Y26617D01*
X36245Y26391D01*
X36820Y26253D01*
X37409Y26206D01*
X37998Y26253D01*
X38573Y26391D01*
X39119Y26617D01*
X39622Y26926D01*
X40072Y27309D01*
X40455Y27759D01*
X40764Y28262D01*
X40990Y28808D01*
X41128Y29383D01*
X41175Y29972D01*
X41128Y30561D01*
X40990Y31136D01*
X40764Y31682D01*
X40455Y32185D01*
X40072Y32635D01*
X39622Y33018D01*
X39119Y33327D01*
X38573Y33553D01*
X37998Y33691D01*
X37409Y33738D01*
X37409Y33738D02*
G37*
G36*
X80956Y34671D02*
X79883Y34671D01*
X79883Y33598D01*
X80071Y33623D01*
X80364Y33744D01*
X80616Y33938D01*
X80810Y34190D01*
X80931Y34483D01*
X80956Y34671D01*
X80956Y34671D02*
G37*
G36*
X79629Y34671D02*
X78556Y34671D01*
X78581Y34483D01*
X78702Y34190D01*
X78896Y33938D01*
X79148Y33744D01*
X79441Y33623D01*
X79629Y33598D01*
X79629Y34671D01*
X79629Y34671D02*
G37*
G36*
X46836Y42473D02*
X45827Y42473D01*
X45827Y41464D01*
X45998Y41486D01*
X46276Y41602D01*
X46515Y41785D01*
X46698Y42024D01*
X46814Y42302D01*
X46836Y42473D01*
X46836Y42473D02*
G37*
G36*
X78350Y47183D02*
X77597Y47183D01*
X77597Y46430D01*
X77702Y46444D01*
X77918Y46533D01*
X78104Y46676D01*
X78247Y46862D01*
X78336Y47078D01*
X78350Y47183D01*
X78350Y47183D02*
G37*
G36*
X77343Y48190D02*
X77238Y48176D01*
X77022Y48087D01*
X76836Y47944D01*
X76693Y47758D01*
X76604Y47542D01*
X76590Y47437D01*
X77343Y47437D01*
X77343Y48190D01*
X77343Y48190D02*
G37*
G36*
X77597Y48190D02*
X77597Y47437D01*
X78350Y47437D01*
X78336Y47542D01*
X78247Y47758D01*
X78104Y47944D01*
X77918Y48087D01*
X77702Y48176D01*
X77597Y48190D01*
X77597Y48190D02*
G37*
G36*
X45573Y43736D02*
X45402Y43714D01*
X45124Y43598D01*
X44885Y43415D01*
X44702Y43176D01*
X44586Y42898D01*
X44564Y42727D01*
X45573Y42727D01*
X45573Y43736D01*
X45573Y43736D02*
G37*
G36*
X45827Y43736D02*
X45827Y42727D01*
X46836Y42727D01*
X46814Y42898D01*
X46698Y43176D01*
X46515Y43415D01*
X46276Y43598D01*
X45998Y43714D01*
X45827Y43736D01*
X45827Y43736D02*
G37*
G36*
X77343Y47183D02*
X76590Y47183D01*
X76604Y47078D01*
X76693Y46862D01*
X76836Y46676D01*
X77022Y46533D01*
X77238Y46444D01*
X77343Y46430D01*
X77343Y47183D01*
X77343Y47183D02*
G37*
G36*
X80193Y66413D02*
X79883Y66413D01*
X79883Y65405D01*
X80891Y65405D01*
X80891Y65715D01*
X80867Y65896D01*
X80798Y66064D01*
X80687Y66209D01*
X80542Y66320D01*
X80374Y66389D01*
X80193Y66413D01*
X80193Y66413D02*
G37*
G36*
X39798Y66978D02*
X38677Y66978D01*
X38703Y66778D01*
X38830Y66473D01*
X39031Y66211D01*
X39293Y66010D01*
X39598Y65883D01*
X39798Y65857D01*
X39798Y66978D01*
X39798Y66978D02*
G37*
G36*
X79685Y68947D02*
X78508Y68947D01*
X78508Y68370D01*
X79685Y68370D01*
X79685Y68947D01*
X79685Y68947D02*
G37*
G36*
X64998Y66760D02*
X64746Y66726D01*
X64511Y66629D01*
X64310Y66474D01*
X64155Y66273D01*
X64058Y66038D01*
X64025Y65786D01*
X64058Y65534D01*
X64155Y65299D01*
X64310Y65098D01*
X64511Y64943D01*
X64746Y64846D01*
X64998Y64812D01*
X65250Y64846D01*
X65485Y64943D01*
X65686Y65098D01*
X65841Y65299D01*
X65938Y65534D01*
X65972Y65786D01*
X65938Y66038D01*
X65841Y66273D01*
X65686Y66474D01*
X65485Y66629D01*
X65250Y66726D01*
X64998Y66760D01*
X64998Y66760D02*
G37*
G36*
X37775Y66596D02*
X37578Y66570D01*
X37395Y66494D01*
X37237Y66373D01*
X37116Y66215D01*
X37040Y66032D01*
X37014Y65835D01*
X37040Y65638D01*
X37116Y65455D01*
X37237Y65297D01*
X37395Y65176D01*
X37578Y65100D01*
X37775Y65074D01*
X37972Y65100D01*
X38155Y65176D01*
X38313Y65297D01*
X38434Y65455D01*
X38510Y65638D01*
X38536Y65835D01*
X38510Y66032D01*
X38434Y66215D01*
X38313Y66373D01*
X38155Y66494D01*
X37972Y66570D01*
X37775Y66596D01*
X37775Y66596D02*
G37*
G36*
X79629Y66413D02*
X79318Y66413D01*
X79138Y66389D01*
X78970Y66320D01*
X78825Y66209D01*
X78714Y66064D01*
X78645Y65896D01*
X78621Y65715D01*
X78621Y65405D01*
X79629Y65405D01*
X79629Y66413D01*
X79629Y66413D02*
G37*
G36*
X64998Y71840D02*
X64746Y71806D01*
X64511Y71709D01*
X64310Y71554D01*
X64155Y71353D01*
X64058Y71118D01*
X64025Y70866D01*
X64058Y70614D01*
X64155Y70379D01*
X64310Y70178D01*
X64511Y70023D01*
X64746Y69926D01*
X64998Y69892D01*
X65250Y69926D01*
X65485Y70023D01*
X65686Y70178D01*
X65841Y70379D01*
X65938Y70614D01*
X65972Y70866D01*
X65938Y71118D01*
X65841Y71353D01*
X65686Y71554D01*
X65485Y71709D01*
X65250Y71806D01*
X64998Y71840D01*
X64998Y71840D02*
G37*
G36*
X81116Y72078D02*
X78508Y72078D01*
X78508Y70670D01*
X81116Y70670D01*
X81116Y72078D01*
X81116Y72078D02*
G37*
G36*
X81116Y74378D02*
X78508Y74378D01*
X78508Y74062D01*
X77874Y74062D01*
X77725Y74033D01*
X77599Y73949D01*
X76941Y73291D01*
X76857Y73165D01*
X76828Y73016D01*
X76828Y66339D01*
X76647Y66264D01*
X76411Y66083D01*
X76230Y65847D01*
X76116Y65573D01*
X76077Y65278D01*
X76116Y64983D01*
X76230Y64709D01*
X76411Y64473D01*
X76647Y64292D01*
X76921Y64178D01*
X77216Y64139D01*
X77226Y64141D01*
X77322Y64057D01*
X77322Y54003D01*
X77195Y53941D01*
X77023Y54072D01*
X76749Y54186D01*
X76454Y54225D01*
X76159Y54186D01*
X75885Y54072D01*
X75649Y53891D01*
X75468Y53655D01*
X75354Y53381D01*
X75315Y53086D01*
X75354Y52791D01*
X75429Y52610D01*
X75225Y52407D01*
X75141Y52281D01*
X75112Y52132D01*
X75112Y33974D01*
X75141Y33825D01*
X75225Y33699D01*
X78672Y30253D01*
X78581Y30033D01*
X78539Y29718D01*
X78581Y29403D01*
X78702Y29110D01*
X78896Y28858D01*
X79148Y28664D01*
X79441Y28543D01*
X79677Y28511D01*
X79669Y28385D01*
X78549Y28385D01*
X78549Y25972D01*
X80963Y25972D01*
X80963Y28385D01*
X79843Y28385D01*
X79835Y28511D01*
X80071Y28543D01*
X80364Y28664D01*
X80616Y28858D01*
X80810Y29110D01*
X80931Y29403D01*
X80973Y29718D01*
X80931Y30033D01*
X80810Y30326D01*
X80616Y30578D01*
X80364Y30772D01*
X80071Y30893D01*
X79839Y30924D01*
X79839Y31052D01*
X80071Y31083D01*
X80364Y31204D01*
X80616Y31398D01*
X80810Y31650D01*
X80931Y31943D01*
X80973Y32258D01*
X80931Y32573D01*
X80810Y32866D01*
X80616Y33118D01*
X80364Y33312D01*
X80071Y33433D01*
X79839Y33464D01*
X79839Y33470D01*
X79796Y33470D01*
X79756Y33475D01*
X79716Y33470D01*
X79673Y33470D01*
X79673Y33464D01*
X79441Y33433D01*
X79221Y33342D01*
X77858Y34705D01*
X77858Y38889D01*
X77918Y38913D01*
X78104Y39056D01*
X78247Y39242D01*
X78275Y39312D01*
X79459Y39312D01*
X79487Y39242D01*
X79630Y39056D01*
X79816Y38913D01*
X80032Y38824D01*
X80264Y38793D01*
X80496Y38824D01*
X80712Y38913D01*
X80898Y39056D01*
X81041Y39242D01*
X81130Y39458D01*
X81161Y39690D01*
X81130Y39922D01*
X81041Y40138D01*
X80898Y40324D01*
X80712Y40467D01*
X80496Y40556D01*
X80264Y40587D01*
X80032Y40556D01*
X79816Y40467D01*
X79630Y40324D01*
X79487Y40138D01*
X79467Y40088D01*
X78267Y40088D01*
X78247Y40138D01*
X78104Y40324D01*
X77918Y40467D01*
X77702Y40556D01*
X77470Y40587D01*
X77238Y40556D01*
X77022Y40467D01*
X76836Y40324D01*
X76693Y40138D01*
X76604Y39922D01*
X76573Y39690D01*
X76604Y39458D01*
X76693Y39242D01*
X76836Y39056D01*
X77022Y38913D01*
X77082Y38889D01*
X77082Y34544D01*
X77111Y34395D01*
X77195Y34269D01*
X78672Y32793D01*
X78581Y32573D01*
X78539Y32258D01*
X78581Y31943D01*
X78702Y31650D01*
X78896Y31398D01*
X79148Y31204D01*
X79441Y31083D01*
X79673Y31052D01*
X79673Y30924D01*
X79441Y30893D01*
X79221Y30802D01*
X75888Y34135D01*
X75888Y51971D01*
X75978Y52061D01*
X76159Y51986D01*
X76454Y51947D01*
X76749Y51986D01*
X77023Y52100D01*
X77195Y52231D01*
X77322Y52169D01*
X77322Y49864D01*
X77351Y49715D01*
X77435Y49589D01*
X79423Y47602D01*
X79398Y47542D01*
X79367Y47310D01*
X79398Y47078D01*
X79487Y46862D01*
X79630Y46676D01*
X79816Y46533D01*
X80032Y46444D01*
X80264Y46413D01*
X80496Y46444D01*
X80712Y46533D01*
X80898Y46676D01*
X81041Y46862D01*
X81130Y47078D01*
X81161Y47310D01*
X81130Y47542D01*
X81041Y47758D01*
X80898Y47944D01*
X80712Y48087D01*
X80496Y48176D01*
X80264Y48207D01*
X80032Y48176D01*
X79972Y48151D01*
X78098Y50025D01*
X78098Y51860D01*
X78225Y51962D01*
X78294Y51949D01*
X78867Y51949D01*
X78867Y53086D01*
X78867Y54223D01*
X78294Y54223D01*
X78225Y54210D01*
X78098Y54312D01*
X78098Y64490D01*
X78085Y64556D01*
X78202Y64709D01*
X78316Y64983D01*
X78355Y65278D01*
X78316Y65573D01*
X78202Y65847D01*
X78021Y66083D01*
X77785Y66264D01*
X77604Y66339D01*
X77604Y72855D01*
X78035Y73286D01*
X78508Y73286D01*
X78508Y72970D01*
X81116Y72970D01*
X81116Y74378D01*
X81116Y74378D02*
G37*
G36*
X81116Y68947D02*
X79939Y68947D01*
X79939Y68370D01*
X81116Y68370D01*
X81116Y68947D01*
X81116Y68947D02*
G37*
G36*
X79685Y69778D02*
X78508Y69778D01*
X78508Y69201D01*
X79685Y69201D01*
X79685Y69778D01*
X79685Y69778D02*
G37*
G36*
X81116Y69778D02*
X79939Y69778D01*
X79939Y69201D01*
X81116Y69201D01*
X81116Y69778D01*
X81116Y69778D02*
G37*
G36*
X80891Y65151D02*
X79883Y65151D01*
X79883Y64143D01*
X80193Y64143D01*
X80374Y64167D01*
X80542Y64236D01*
X80687Y64347D01*
X80798Y64492D01*
X80867Y64660D01*
X80891Y64840D01*
X80891Y65151D01*
X80891Y65151D02*
G37*
G36*
X80470Y58039D02*
X79589Y58039D01*
X79589Y57158D01*
X79727Y57176D01*
X79974Y57279D01*
X80187Y57441D01*
X80349Y57654D01*
X80452Y57901D01*
X80470Y58039D01*
X80470Y58039D02*
G37*
G36*
X47117Y58541D02*
X46544Y58541D01*
X46377Y58508D01*
X46235Y58413D01*
X46140Y58271D01*
X46107Y58104D01*
X46107Y57531D01*
X47117Y57531D01*
X47117Y58541D01*
X47117Y58541D02*
G37*
G36*
X47944Y58541D02*
X47371Y58541D01*
X47371Y57531D01*
X48381Y57531D01*
X48381Y58104D01*
X48348Y58271D01*
X48253Y58413D01*
X48111Y58508D01*
X47944Y58541D01*
X47944Y58541D02*
G37*
G36*
X47117Y57277D02*
X46107Y57277D01*
X46107Y56704D01*
X46140Y56537D01*
X46235Y56395D01*
X46377Y56300D01*
X46544Y56267D01*
X47117Y56267D01*
X47117Y57277D01*
X47117Y57277D02*
G37*
G36*
X48381Y57277D02*
X47371Y57277D01*
X47371Y56267D01*
X47944Y56267D01*
X48111Y56300D01*
X48253Y56395D01*
X48348Y56537D01*
X48381Y56704D01*
X48381Y57277D01*
X48381Y57277D02*
G37*
G36*
X79335Y58039D02*
X78454Y58039D01*
X78472Y57901D01*
X78575Y57654D01*
X78737Y57441D01*
X78950Y57279D01*
X79197Y57176D01*
X79335Y57158D01*
X79335Y58039D01*
X79335Y58039D02*
G37*
G36*
X57251Y63119D02*
X56421Y63119D01*
X56438Y62994D01*
X56535Y62759D01*
X56690Y62558D01*
X56891Y62403D01*
X57126Y62306D01*
X57251Y62289D01*
X57251Y63119D01*
X57251Y63119D02*
G37*
G36*
X57251Y64203D02*
X57126Y64186D01*
X56891Y64089D01*
X56690Y63934D01*
X56535Y63733D01*
X56438Y63498D01*
X56421Y63373D01*
X57251Y63373D01*
X57251Y64203D01*
X57251Y64203D02*
G37*
G36*
X79629Y65151D02*
X78621Y65151D01*
X78621Y64840D01*
X78645Y64660D01*
X78714Y64492D01*
X78825Y64347D01*
X78970Y64236D01*
X79138Y64167D01*
X79318Y64143D01*
X79629Y64143D01*
X79629Y65151D01*
X79629Y65151D02*
G37*
G36*
X79335Y59174D02*
X79197Y59156D01*
X78950Y59053D01*
X78737Y58891D01*
X78575Y58678D01*
X78472Y58431D01*
X78454Y58293D01*
X79335Y58293D01*
X79335Y59174D01*
X79335Y59174D02*
G37*
G36*
X79589Y59174D02*
X79589Y58293D01*
X80470Y58293D01*
X80452Y58431D01*
X80349Y58678D01*
X80187Y58891D01*
X79974Y59053D01*
X79727Y59156D01*
X79589Y59174D01*
X79589Y59174D02*
G37*
G36*
X64998Y64220D02*
X64746Y64186D01*
X64511Y64089D01*
X64310Y63934D01*
X64155Y63733D01*
X64058Y63498D01*
X64025Y63246D01*
X64058Y62994D01*
X64155Y62759D01*
X64310Y62558D01*
X64511Y62403D01*
X64746Y62306D01*
X64998Y62272D01*
X65250Y62306D01*
X65485Y62403D01*
X65686Y62558D01*
X65841Y62759D01*
X65938Y62994D01*
X65972Y63246D01*
X65938Y63498D01*
X65841Y63733D01*
X65686Y63934D01*
X65485Y64089D01*
X65250Y64186D01*
X64998Y64220D01*
X64998Y64220D02*
G37*
%LPD*%
D10*
X79812Y69074D02*
D03*
X79812Y71374D02*
D03*
X79812Y73674D02*
D03*
D11*
X74112Y71374D02*
D03*
D12*
X47475Y69625D02*
X48492Y68608D01*
X45370Y69625D02*
X47475Y69625D01*
X45150Y69845D02*
X45370Y69625D01*
X48492Y62249D02*
X48492Y68608D01*
X45150Y65550D02*
X45150Y67305D01*
X41900Y62300D02*
X45150Y65550D01*
X41900Y53000D02*
X41900Y62300D01*
X47244Y54864D02*
X49000Y54864D01*
X43700Y52324D02*
X47244Y52324D01*
X56686Y70866D02*
X57378Y70866D01*
X57378Y68326D02*
X62992Y68326D01*
X57378Y45466D02*
X61722Y45466D01*
X61976Y60706D02*
X64998Y60706D01*
X60706Y59436D02*
X61976Y60706D01*
X60706Y55372D02*
X60706Y59436D01*
X61868Y54210D02*
X68810Y54210D01*
X60706Y55372D02*
X61868Y54210D01*
X61830Y56750D02*
X68810Y56750D01*
X61722Y56642D02*
X61830Y56750D01*
X58502Y49130D02*
X68810Y49130D01*
X57378Y48006D02*
X58502Y49130D01*
X58674Y52324D02*
X58674Y64490D01*
X57378Y65786D02*
X58674Y64490D01*
X55372Y56160D02*
X57378Y58166D01*
X55372Y53472D02*
X55372Y56160D01*
X55880Y52324D02*
X55880Y54128D01*
X53848Y50292D02*
X55880Y52324D01*
X53295Y50292D02*
X53848Y50292D01*
X52554Y49551D02*
X53295Y50292D01*
X67686Y50546D02*
X68810Y51670D01*
X64998Y50546D02*
X67686Y50546D01*
X57104Y51816D02*
X58166Y51816D01*
X58674Y52324D01*
X55372Y50084D02*
X57104Y51816D01*
X55372Y45852D02*
X55372Y50084D01*
X53570Y44050D02*
X55372Y45852D01*
X55880Y54128D02*
X57378Y55626D01*
X57378Y52938D02*
X57378Y53086D01*
X53570Y49130D02*
X57378Y52938D01*
X53570Y51670D02*
X55372Y53472D01*
X56134Y60706D02*
X57378Y60706D01*
X54864Y59436D02*
X56134Y60706D01*
X54864Y55504D02*
X54864Y59436D01*
X53570Y54210D02*
X54864Y55504D01*
X64998Y45466D02*
X66414Y44050D01*
X68810Y44050D01*
X63728Y69596D02*
X64998Y68326D01*
X56134Y69596D02*
X63728Y69596D01*
X53570Y67032D02*
X56134Y69596D01*
X53570Y56750D02*
X53570Y67032D01*
X65506Y34798D02*
X72136Y34798D01*
X57378Y42926D02*
X65506Y34798D01*
X57888Y29718D02*
X72136Y29718D01*
X52554Y47606D02*
X52554Y49551D01*
X52554Y47606D02*
X53570Y46590D01*
X77470Y34544D02*
X79756Y32258D01*
X52046Y35560D02*
X57888Y29718D01*
X52046Y66226D02*
X56686Y70866D01*
X52046Y35560D02*
X52046Y66226D01*
X77874Y73674D02*
X79812Y73674D01*
X77216Y73016D02*
X77874Y73674D01*
X77216Y65278D02*
X77216Y73016D01*
X47244Y48260D02*
X49000Y50016D01*
X49000Y73682D01*
X48032Y74650D02*
X49000Y73682D01*
X43700Y61214D02*
X47457Y61214D01*
X48492Y62249D01*
X39900Y69645D02*
X39900Y73800D01*
X40750Y74650D01*
X48032Y74650D01*
X64998Y42926D02*
X66874Y42926D01*
X64998Y55626D02*
X69074Y55626D01*
X73100Y51600D01*
X73100Y47310D02*
X73100Y51600D01*
X77470Y34544D02*
X77470Y39700D01*
X80264Y39700D01*
X77216Y64984D02*
X77216Y65278D01*
X63100Y46590D02*
X68810Y46590D01*
X73469Y33591D02*
X73469Y36331D01*
X66874Y42926D02*
X73469Y36331D01*
X75500Y33974D02*
X79756Y29718D01*
X75500Y33974D02*
X75500Y52132D01*
X76454Y53086D01*
X77710Y49864D02*
X77710Y64490D01*
X77216Y64984D02*
X77710Y64490D01*
X77710Y49864D02*
X80237Y47337D01*
X39430Y41382D02*
X40680Y42632D01*
X43700Y52336D02*
X43700Y53590D01*
X39624Y48260D02*
X43700Y52336D01*
X38200Y42612D02*
X43180Y37632D01*
X38200Y42612D02*
X38200Y49300D01*
X41900Y53000D01*
X72136Y32258D02*
X73469Y33591D01*
D13*
X64998Y58166D02*
X74462Y58166D01*
X73100Y39690D02*
X74500Y39690D01*
X72136Y27178D02*
X74500Y29542D01*
X74500Y58128D01*
X74462Y58166D02*
X74500Y58128D01*
X74112Y58516D02*
X74112Y71374D01*
X74112Y58516D02*
X74462Y58166D01*
D14*
X80264Y47310D02*
D03*
X80264Y39690D02*
D03*
X77470Y39690D02*
D03*
X77470Y47310D02*
D03*
X73100Y47310D02*
D03*
X73100Y39690D02*
D03*
X53570Y46590D02*
D03*
X53570Y49130D02*
D03*
X53570Y51670D02*
D03*
X53570Y54210D02*
D03*
X53570Y56750D02*
D03*
X68810Y44050D02*
D03*
X68810Y46590D02*
D03*
X68810Y49130D02*
D03*
X68810Y51670D02*
D03*
X68810Y54210D02*
D03*
X68810Y56750D02*
D03*
X39624Y48260D02*
D03*
X47244Y48260D02*
D03*
X43700Y53590D02*
D03*
X43700Y61210D02*
D03*
X61722Y56642D02*
D03*
X61722Y45466D02*
D03*
X62992Y68326D02*
D03*
X63100Y46590D02*
D03*
D15*
X37409Y29972D02*
D03*
X37409Y55372D02*
D03*
D16*
X73914Y53086D02*
D03*
X76454Y53086D02*
D03*
X47244Y52324D02*
D03*
X47244Y54864D02*
D03*
X77216Y65278D02*
D03*
D17*
X78994Y53086D02*
D03*
D18*
X79462Y58166D02*
D03*
X74462Y58166D02*
D03*
D19*
X72136Y34798D02*
D03*
X72136Y32258D02*
D03*
X72136Y29718D02*
D03*
X72136Y27178D02*
D03*
X79756Y34798D02*
D03*
X79756Y32258D02*
D03*
X79756Y29718D02*
D03*
D20*
X79756Y27178D02*
D03*
D21*
X64998Y70866D02*
D03*
X64998Y68326D02*
D03*
X64998Y65786D02*
D03*
X64998Y63246D02*
D03*
X64998Y60706D02*
D03*
X64998Y58166D02*
D03*
X64998Y55626D02*
D03*
X64998Y53086D02*
D03*
X57378Y50546D02*
D03*
X64998Y50546D02*
D03*
X64998Y48006D02*
D03*
X64998Y45466D02*
D03*
X64998Y42926D02*
D03*
X57378Y42926D02*
D03*
X57378Y45466D02*
D03*
X57378Y48006D02*
D03*
X57378Y53086D02*
D03*
X57378Y55626D02*
D03*
X57378Y58166D02*
D03*
X57378Y60706D02*
D03*
X57378Y63246D02*
D03*
X57378Y65786D02*
D03*
X57378Y68326D02*
D03*
D22*
X57378Y70866D02*
D03*
D23*
X53570Y44050D02*
D03*
D24*
X47244Y57404D02*
D03*
D25*
X45175Y69645D02*
D03*
D03*
X45175Y67105D02*
D03*
X39925Y69645D02*
D03*
X39925Y67105D02*
D03*
D26*
X79756Y65278D02*
D03*
D27*
X43200Y37600D02*
D03*
X40700Y42600D02*
D03*
X45700Y42600D02*
D03*
M02*
