M48
;Layer_Color=6321
;FILE_FORMAT=4:3
METRIC,TZ
;TYPE=PLATED
T1F00S00C0.635
T2F00S00C0.700
T3F00S00C0.711
T4F00S00C0.800
T5F00S00C0.900
T6F00S00C0.914
T7F00S00C1.000
T8F00S00C1.016
T9F00S00C3.100
;TYPE=NON_PLATED
T10F00S00C1.000
T11F00S00C2.500
%
T01
X45950Y44050
X45950Y46590
X45950Y49130
X45950Y51670
X45950Y54210
X45950Y56750
X61190Y56750
X61190Y54210
X61190Y51670
X61190Y49130
X61190Y46590
X61190Y44050
T02
X52090Y30500
X59710Y30500
X69150Y39690
X71944Y39690
X71944Y47310
X69150Y47310
X39624Y48260
X32004Y48260
X36080Y53590
X36080Y61210
T03
X51950Y50000
X51850Y71350
T04
X71842Y58166
T05
X64516Y27178
X64516Y29718
X64516Y32258
X64516Y34798
X72136Y34798
X72136Y32258
X72136Y29718
X72136Y27178
X66842Y58166
T06
X49762Y39430
X57382Y39430
X57382Y41970
X57382Y44510
X57382Y47050
X57382Y49590
X57382Y52130
X57382Y54670
X57382Y57210
X57382Y59750
X57382Y62290
X57382Y64830
X57382Y67370
X49762Y67370
X49762Y64830
X49762Y62290
X49762Y59750
X49762Y57210
X49762Y54670
X49762Y52130
X49762Y49590
X49762Y47050
X49762Y44510
X49762Y41970
T07
X66294Y53086
X68834Y53086
X71374Y53086
X71470Y65200
X68930Y65200
X37555Y67105
X37555Y69645
X32305Y69645
X32305Y67105
X39624Y57404
X39624Y54864
X39624Y52324
T08
X35580Y37600
X33080Y42600
X38080Y42600
T09
X29789Y29972
X29789Y55372
T10
X30155Y65835
T11
X34805Y66475
X34805Y70275
M30
