M48
;Layer_Color=6321
;FILE_FORMAT=4:3
METRIC,TZ
;TYPE=PLATED
T1F00S00C0.700
T2F00S00C0.800
T3F00S00C0.900
T4F00S00C0.914
T5F00S00C1.000
T6F00S00C1.016
T7F00S00C3.100
;TYPE=NON_PLATED
T8F00S00C1.000
T9F00S00C2.500
%
T01
X80264Y39690
X80264Y47310
X77470Y47310
X73100Y47310
X68810Y46590
X68810Y44050
X68810Y49130
X68810Y51670
X68810Y54210
X68810Y56750
X61722Y56642
X53570Y56750
X53570Y54210
X53570Y51670
X53570Y49130
X53570Y46590
X53570Y44050
X61722Y45466
X63100Y46590
X73100Y39690
X77470Y39690
X47244Y48260
X43700Y53590
X43700Y61210
X62992Y68326
X39624Y48260
T02
X79462Y58166
T03
X72136Y27178
X72136Y29718
X72136Y32258
X72136Y34798
X79756Y34798
X79756Y32258
X79756Y29718
X79756Y27178
X74462Y58166
T04
X57378Y42926
X57378Y45466
X57378Y48006
X57378Y50546
X57378Y53086
X57378Y55626
X57378Y58166
X57378Y60706
X57378Y63246
X57378Y65786
X57378Y68326
X57378Y70866
X64998Y70866
X64998Y68326
X64998Y65786
X64998Y63246
X64998Y60706
X64998Y58166
X64998Y55626
X64998Y53086
X64998Y50546
X64998Y48006
X64998Y45466
X64998Y42926
T05
X79756Y65278
X77216Y65278
X76454Y53086
X73914Y53086
X78994Y53086
X47244Y52324
X47244Y54864
X47244Y57404
X45175Y67105
X45175Y69645
X39925Y69645
X39925Y67105
T06
X43200Y37600
X40700Y42600
X45700Y42600
T07
X37409Y29972
X37409Y55372
T08
X37775Y65835
T09
X42425Y66475
X42425Y70275
M30
